<?xml version="1.0" standalone="no"?><!-- Generator: Gravit.io --><svg xmlns="http://www.w3.org/2000/svg" xmlns:xlink="http://www.w3.org/1999/xlink" style="isolation:isolate" viewBox="0 0 300.766 181.831" width="300.766" height="181.831"><path d=" M 0 0 L 0 181.831 L 300.766 181.831 L 300.766 0 L 0 0 Z " fill="none"/><path d=" M 0 0 L 0 181.831 L 300.766 181.831 L 300.766 0 L 0 0 Z " fill="none"/><path d=" M 180.81 127.255 C 144.196 146.821 121.133 147.696 92.258 120.913 C 91.875 120.579 91.655 119.915 92.351 119.465 C 119.626 100.529 139.997 101.504 171.727 111.437 C 213.177 128.103 212.69 108.978 212.69 108.978 C 203.119 117.981 192.713 119.019 184.708 114.294 C 136.957 87.519 108.268 104.19 96.852 114.268 C 96.005 115.023 90.541 119.088 91.051 120.057 C 90.982 120.832 94.23 124.724 94.845 125.516 C 104.416 138.057 132.77 164.196 185.021 127.134 C 190.914 122.247 202.086 123.082 211.716 130.89 C 211.716 130.89 205.138 114.312 180.81 127.255 Z " fill="rgb(69,169,223)"/><path d=" M 0 0 L 0 181.831 L 300.766 181.831 L 300.766 0 L 0 0 Z " fill="none"/><path d=" M 116.642 115.858 C 116.642 117.189 115.482 118.268 114.055 118.268 C 112.628 118.268 111.468 117.189 111.468 115.858 C 111.468 114.53 112.628 113.457 114.055 113.457 C 115.482 113.457 116.642 114.53 116.642 115.858 Z " fill="rgb(69,169,223)"/><path d=" M 0 0 L 0 181.831 L 300.766 181.831 L 300.766 0 L 0 0 Z " fill="none"/><path d=" M 74.126 56.084 C 74.126 58.64 71.968 60.707 69.289 60.707 C 66.62 60.707 64.451 58.64 64.451 56.084 C 64.451 53.541 66.62 51.467 69.289 51.467 C 71.968 51.467 74.126 53.541 74.126 56.084 Z " fill="rgb(69,169,223)"/><path d=" M 0 0 L 0 181.831 L 300.766 181.831 L 300.766 0 L 0 0 Z " fill="none"/><path d=" M 98.301 102.566 C 98.301 105.113 96.131 107.189 93.463 107.189 C 90.783 107.189 88.613 105.113 88.613 102.566 C 88.613 100.014 90.783 97.946 93.463 97.946 C 96.131 97.946 98.301 100.014 98.301 102.566 Z " fill="rgb(69,169,223)"/><path d=" M 0 0 L 0 181.831 L 300.766 181.831 L 300.766 0 L 0 0 Z " fill="none"/><path d=" M 94.043 78.552 C 94.043 81.107 91.874 83.172 89.194 83.172 C 86.526 83.172 84.356 81.107 84.356 78.552 C 84.356 76.005 86.526 73.935 89.194 73.935 C 91.874 73.935 94.043 76.005 94.043 78.552 Z " fill="rgb(69,169,223)"/><path d=" M 0 0 L 0 181.831 L 300.766 181.831 L 300.766 0 L 0 0 Z " fill="none"/><path d=" M 109.687 88.824 C 109.687 91.371 107.518 93.442 104.849 93.442 C 102.17 93.442 100 91.371 100 88.824 C 100 86.266 102.17 84.19 104.849 84.19 C 107.518 84.19 109.687 86.266 109.687 88.824 Z " fill="rgb(69,169,223)"/><path d=" M 0 0 L 0 181.831 L 300.766 181.831 L 300.766 0 L 0 0 Z " fill="none"/><path d=" M 149.033 87.908 C 149.033 90.454 146.852 92.531 144.171 92.531 C 141.503 92.531 139.334 90.454 139.334 87.908 C 139.334 85.353 141.503 83.279 144.171 83.279 C 146.852 83.279 149.033 85.353 149.033 87.908 Z " fill="rgb(69,169,223)"/><path d=" M 0 0 L 0 181.831 L 300.766 181.831 L 300.766 0 L 0 0 Z " fill="none"/><path d=" M 87.558 131.573 C 87.558 134.124 85.389 136.186 82.72 136.186 C 80.04 136.186 77.871 134.124 77.871 131.573 C 77.871 129.014 80.04 126.952 82.72 126.952 C 85.389 126.952 87.558 129.014 87.558 131.573 Z " fill="rgb(69,169,223)"/><path d=" M 0 0 L 0 181.831 L 300.766 181.831 L 300.766 0 L 0 0 Z " fill="none"/><path d=" M 89.391 37.62 C 89.391 40.175 87.222 42.243 84.553 42.243 C 81.873 42.243 79.716 40.175 79.716 37.62 C 79.716 35.065 81.873 33 84.553 33 C 87.222 33 89.391 35.065 89.391 37.62 Z " fill="rgb(69,169,223)"/><path d=" M 0 0 L 0 181.831 L 300.766 181.831 L 300.766 0 L 0 0 Z " fill="none"/><path d=" M 97.512 57.299 C 97.512 59.242 95.876 60.814 93.846 60.814 C 91.804 60.814 90.168 59.242 90.168 57.299 C 90.168 55.358 91.804 53.792 93.846 53.792 C 95.876 53.792 97.512 55.358 97.512 57.299 Z " fill="rgb(69,169,223)"/><path d=" M 0 0 L 0 181.831 L 300.766 181.831 L 300.766 0 L 0 0 Z " fill="none"/><path d=" M 114.055 73.804 C 114.055 75.742 112.396 77.308 110.378 77.308 C 108.335 77.308 106.688 75.742 106.688 73.804 C 106.688 71.855 108.335 70.289 110.378 70.289 C 112.396 70.289 114.055 71.855 114.055 73.804 Z " fill="rgb(69,169,223)"/><path d=" M 190.995 133.459 C 190.995 135.401 189.346 136.967 187.329 136.967 C 185.287 136.967 183.65 135.401 183.65 133.459 C 183.65 131.517 185.287 129.951 187.329 129.951 C 189.346 129.951 190.995 131.517 190.995 133.459 Z " fill="rgb(69,169,223)"/><path d=" M 79.716 70.286 C 79.716 72.232 78.068 73.801 76.038 73.801 C 73.996 73.801 72.349 72.232 72.349 70.286 C 72.349 68.351 73.996 66.777 76.038 66.777 C 78.068 66.777 79.716 68.351 79.716 70.286 Z " fill="rgb(69,169,223)"/><path d=" M 129 93.445 C 129 95.388 127.364 96.955 125.334 96.955 C 123.304 96.955 121.657 95.388 121.657 93.445 C 121.657 91.508 123.304 89.93 125.334 89.93 C 127.364 89.93 129 91.508 129 93.445 Z " fill="rgb(69,169,223)"/><path d=" M 47 23 L 47 160 L 231 160 L 231 23 L 47 23 Z " fill="none"/><path d=" M 72.546 92.528 C 72.546 94.469 70.898 96.041 68.868 96.041 C 66.85 96.041 65.191 94.469 65.191 92.528 C 65.191 90.597 66.85 89.022 68.868 89.022 C 70.898 89.022 72.546 90.597 72.546 92.528 Z " fill="rgb(69,169,223)"/><g transform="matrix(1,0,0,1,53.9,18.178)"><text transform="matrix(1,0,0,1,52.997,34.32)" style="font-family:'Palanquin Dark';font-weight:400;font-size:26px;font-style:normal;fill:#45a9df;stroke:none;">interior</text></g><g transform="matrix(1,0,0,1,140,77.56)"><text transform="matrix(1,0,0,1,23.37,13.2)" style="font-family:'Palanquin Dark';font-weight:400;font-size:10px;font-style:normal;fill:#45a9df;stroke:none;">aquarium</text></g><g transform="matrix(1,0,0,1,143.5,87.757)"><text transform="matrix(1,0,0,1,27.005,13.2)" style="font-family:'Palanquin Dark';font-weight:400;font-size:10px;font-style:normal;fill:#45a9df;stroke:none;">services</text></g><g transform="matrix(1,0,0,1,69.8,40)"><text transform="matrix(1,0,0,1,49.695,34.32)" style="font-family:'Palanquin Dark';font-weight:400;font-size:26px;font-style:normal;fill:#45a9df;stroke:none;">ecology</text></g></svg>